<svg xmlns="http://www.w3.org/2000/svg" width="15" height="14.992" viewBox="0 0 15 14.992">
  <g id="Group_39811" data-name="Group 39811" transform="translate(-380 -1952)">
    <g id="Air_Conditioner" data-name="Air Conditioner" transform="translate(321.2 1893.505)">
      <g id="Group_8" data-name="Group 8" transform="translate(58.8 58.495)">
        <path id="Path_212" data-name="Path 212" d="M72.852,65.236a.348.348,0,0,1,.023-.059.75.75,0,1,0-1.233-.853c-.215.278-.431.556-.65.83a.267.267,0,0,1-.176.09c-.853.008-1.711,0-2.564,0a.568.568,0,0,1-.11-.016.308.308,0,0,0,.023-.039c.626-.626,1.249-1.253,1.875-1.875a.216.216,0,0,1,.153-.047q.546.059,1.092.129a.752.752,0,0,0,.861-.63.763.763,0,0,0-.6-.845c-.023,0-.047-.016-.086-.027.047-.047.078-.082.114-.117a.755.755,0,0,0,.031-1.076.773.773,0,0,0-1.092.012c-.039.039-.078.074-.129.121-.008-.043-.012-.055-.016-.07a.748.748,0,1,0-1.476.251c.043.348.082.7.129,1.045a.257.257,0,0,1-.082.231c-.591.583-1.174,1.174-1.761,1.761-.031.031-.067.063-.117.11,0-.051-.008-.078-.008-.106,0-.865,0-1.73,0-2.591a.252.252,0,0,1,.086-.164c.3-.239.6-.466.9-.708a.741.741,0,0,0,.129-.994.755.755,0,0,0-.986-.227c-.035.02-.074.039-.129.07a.961.961,0,0,0-.16-.654.75.75,0,0,0-1.069-.125.882.882,0,0,0-.282.775c-.035-.016-.051-.02-.07-.027a.748.748,0,0,0-1.049.192.756.756,0,0,0,.2,1.049c.27.211.536.423.81.626a.26.26,0,0,1,.114.231c0,.83,0,1.66,0,2.489,0,.047,0,.094-.008.149-.023-.016-.039-.02-.047-.027-.626-.626-1.253-1.249-1.875-1.875a.218.218,0,0,1-.043-.157c.039-.368.086-.736.133-1.1a.748.748,0,0,0-1.456-.317c-.016.047-.027.1-.043.149-.528-.391-.869-.442-1.174-.149a.929.929,0,0,0-.235.407.811.811,0,0,0,.341.822l-.063.02a.75.75,0,1,0,.251,1.48c.348-.043.7-.082,1.045-.129a.237.237,0,0,1,.219.078q.887.892,1.781,1.781c.027.027.055.063.09.1-.039,0-.055.012-.074.012-.873,0-1.75,0-2.623,0a.267.267,0,0,1-.164-.09c-.235-.294-.462-.595-.7-.885a.739.739,0,0,0-1-.133.755.755,0,0,0-.219.99c.02.035.039.07.051.094a3.821,3.821,0,0,0-.5.114.772.772,0,0,0-.427.525v.294a.776.776,0,0,0,.454.536,3.557,3.557,0,0,0,.478.094c-.012.023-.027.055-.047.086a.753.753,0,0,0,.211,1,.744.744,0,0,0,1.014-.145c.239-.294.462-.595.7-.885a.247.247,0,0,1,.153-.082c.873,0,1.75,0,2.623,0a.465.465,0,0,1,.078.012c-.039.047-.07.082-.1.114-.591.591-1.182,1.178-1.769,1.773a.221.221,0,0,1-.215.078c-.348-.047-.7-.086-1.045-.129a.75.75,0,1,0-.243,1.48.341.341,0,0,1,.051.02.8.8,0,0,0-.341.834.856.856,0,0,0,.243.4c.309.286.65.231,1.166-.16.008.039.016.074.023.11a.753.753,0,0,0,1.476-.286c-.047-.364-.09-.724-.129-1.088a.245.245,0,0,1,.047-.168c.618-.626,1.241-1.245,1.859-1.867.008-.008.023-.016.051-.035,0,.051.012.09.012.129q0,1.268,0,2.533a.233.233,0,0,1-.106.2c-.274.207-.54.419-.81.626a.762.762,0,0,0-.211,1.049.754.754,0,0,0,1.061.192c.012-.008.027-.008.063-.023v.176a.747.747,0,0,0,.556.74c.02.008.031.02.051.027h.294c.016-.008.031-.02.051-.027a.746.746,0,0,0,.552-.7c0-.07.008-.141.012-.219.031.012.047.012.055.02a.75.75,0,0,0,1.053-.18.761.761,0,0,0-.2-1.061c-.27-.211-.536-.423-.81-.63a.224.224,0,0,1-.106-.2q.006-1.268,0-2.536c0-.039.008-.078.012-.129l.051.035c.622.622,1.245,1.241,1.863,1.867a.194.194,0,0,1,.047.153c-.039.372-.086.748-.133,1.119a.75.75,0,0,0,1.452.337c.02-.059.035-.117.051-.18.513.391.853.442,1.163.157a.924.924,0,0,0,.243-.4.81.81,0,0,0-.337-.834.157.157,0,0,1,.051-.016.75.75,0,1,0-.247-1.48c-.348.047-.7.09-1.045.125a.291.291,0,0,1-.2-.067c-.607-.595-1.206-1.2-1.8-1.8a1.04,1.04,0,0,1-.07-.09.248.248,0,0,1,.059-.012c.881,0,1.758,0,2.638,0a.229.229,0,0,1,.153.082c.235.294.462.595.7.885a.74.74,0,0,0,.834.235.717.717,0,0,0,.489-.708,2.34,2.34,0,0,0-.11-.454,3.444,3.444,0,0,0,.587-.2.606.606,0,0,0,.309-.568C73.772,65.439,73.4,65.232,72.852,65.236Zm.36.932a.323.323,0,0,1-.223.078c-.211.012-.419,0-.63,0a.263.263,0,0,0-.27.137.269.269,0,0,0,.055.309c.1.125.2.251.3.38a.252.252,0,1,1-.4.309c-.258-.325-.513-.65-.763-.982a.357.357,0,0,0-.313-.153c-1.139,0-2.274,0-3.413,0a.273.273,0,0,0-.29.153.267.267,0,0,0,.094.313q1.215,1.21,2.423,2.423a.345.345,0,0,0,.317.106c.407-.055.814-.1,1.221-.153a.26.26,0,0,1,.321.2.254.254,0,0,1-.239.29c-.164.027-.329.043-.493.063a.254.254,0,0,0-.247.176.275.275,0,0,0,.09.29c.153.145.3.294.446.446.129.133.145.282.039.388s-.262.094-.4-.039c-.149-.149-.3-.294-.446-.446a.26.26,0,0,0-.29-.086.251.251,0,0,0-.164.239c-.02.168-.039.341-.067.509a.254.254,0,0,1-.282.235.256.256,0,0,1-.207-.317c.051-.4.1-.8.153-1.206a.385.385,0,0,0-.117-.356q-1.2-1.192-2.392-2.392c-.1-.1-.2-.164-.337-.106s-.149.176-.149.305c0,1.123,0,2.247,0,3.37a.4.4,0,0,0,.168.348c.329.247.65.5.971.755a.244.244,0,0,1,.082.325.229.229,0,0,1-.286.121.4.4,0,0,1-.137-.078,3.789,3.789,0,0,0-.384-.29.324.324,0,0,0-.266-.031.312.312,0,0,0-.141.227c-.02.235,0,.47-.008.7,0,.117-.047.223-.168.243a.354.354,0,0,1-.251-.059.342.342,0,0,1-.078-.223c-.012-.207,0-.419,0-.63a.263.263,0,0,0-.137-.27.269.269,0,0,0-.309.055c-.125.1-.251.2-.38.3a.255.255,0,0,1-.368-.023.252.252,0,0,1,.063-.372c.317-.251.634-.5.959-.744a.4.4,0,0,0,.176-.344c0-1.127,0-2.255,0-3.386,0-.219-.1-.341-.27-.313a.364.364,0,0,0-.188.1q-1.221,1.215-2.439,2.431a.333.333,0,0,0-.1.317c.055.407.1.814.153,1.221a.262.262,0,0,1-.2.321.254.254,0,0,1-.29-.243c-.027-.172-.031-.352-.074-.521a.247.247,0,0,0-.427-.145c-.168.141-.313.305-.47.462a.264.264,0,0,1-.388.039.257.257,0,0,1,.031-.388c.149-.153.3-.305.454-.454a.26.26,0,0,0,.082-.29.251.251,0,0,0-.239-.164c-.16-.016-.321-.035-.478-.059-.18-.027-.282-.145-.262-.29s.149-.227.329-.207c.4.051.8.1,1.206.153a.359.359,0,0,0,.329-.11q1.2-1.21,2.411-2.415A.273.273,0,0,0,65.3,66.4a.278.278,0,0,0-.294-.149H63.294c-.556,0-1.112,0-1.671,0a.4.4,0,0,0-.348.168c-.247.329-.5.65-.755.971a.244.244,0,0,1-.325.082.229.229,0,0,1-.121-.286.4.4,0,0,1,.078-.137,3.793,3.793,0,0,0,.29-.384.324.324,0,0,0,.031-.266.32.32,0,0,0-.227-.141c-.235-.02-.47,0-.7-.008-.117,0-.223-.047-.243-.168a.349.349,0,0,1,.059-.251.342.342,0,0,1,.223-.078c.211-.012.419,0,.63,0a.263.263,0,0,0,.27-.137.269.269,0,0,0-.055-.309c-.1-.125-.2-.251-.3-.38a.255.255,0,0,1,.023-.368.252.252,0,0,1,.372.063c.254.321.509.646.755.971a.381.381,0,0,0,.337.164q1.691-.006,3.386,0c.129,0,.247-.02.3-.157a.288.288,0,0,0-.106-.325q-1.2-1.2-2.4-2.4a.377.377,0,0,0-.344-.114c-.407.055-.814.106-1.221.157a.256.256,0,0,1-.305-.2.251.251,0,0,1,.227-.286c.176-.031.36-.035.536-.078a.314.314,0,0,0,.207-.168.331.331,0,0,0-.07-.262c-.141-.168-.305-.313-.462-.47-.129-.133-.145-.282-.039-.388a.26.26,0,0,1,.388.031c.149.149.3.294.446.446a.277.277,0,0,0,.29.1.27.27,0,0,0,.184-.258c.02-.164.035-.329.063-.493a.254.254,0,0,1,.282-.235.261.261,0,0,1,.211.317c-.051.407-.1.814-.153,1.221a.373.373,0,0,0,.117.341q1.2,1.2,2.4,2.4a.26.26,0,0,0,.474-.2V61.314A.363.363,0,0,0,65.869,61c-.333-.251-.658-.509-.982-.763a.244.244,0,0,1-.082-.325.231.231,0,0,1,.282-.125.368.368,0,0,1,.137.078,3.791,3.791,0,0,0,.384.29.342.342,0,0,0,.266.035.312.312,0,0,0,.141-.227c.02-.235,0-.47.008-.7,0-.117.047-.227.168-.243a.373.373,0,0,1,.251.055.323.323,0,0,1,.078.223c.012.211,0,.419,0,.63a.258.258,0,0,0,.446.215c.125-.1.254-.2.38-.3a.258.258,0,0,1,.368.02.254.254,0,0,1-.059.372c-.325.258-.654.513-.982.763a.357.357,0,0,0-.153.313c0,1.139,0,2.274,0,3.413a.273.273,0,0,0,.153.29.267.267,0,0,0,.313-.094q1.21-1.215,2.423-2.423a.348.348,0,0,0,.106-.317c-.055-.407-.1-.814-.153-1.221a.257.257,0,0,1,.2-.321.254.254,0,0,1,.29.239c.027.172.031.352.074.521a.246.246,0,0,0,.427.145c.157-.129.294-.286.438-.431s.305-.18.419-.07.094.262-.063.419c-.141.141-.282.286-.427.423a.254.254,0,0,0,.157.454c.168.02.341.039.509.067a.254.254,0,0,1,.235.282.257.257,0,0,1-.313.211c-.4-.051-.806-.1-1.206-.153a.385.385,0,0,0-.356.117q-1.2,1.2-2.4,2.4a.273.273,0,0,0-.094.325.278.278,0,0,0,.294.149h3.4a.372.372,0,0,0,.325-.157c.251-.333.509-.658.763-.982a.244.244,0,0,1,.325-.082.225.225,0,0,1,.121.282.4.4,0,0,1-.078.137,3.792,3.792,0,0,0-.29.384.342.342,0,0,0-.035.266.312.312,0,0,0,.227.141c.235.02.47,0,.7.008.117,0,.223.047.243.168A.279.279,0,0,1,73.212,66.168Z" transform="translate(-58.8 -58.495)"/>
      </g>
    </g>
  </g>
</svg>
