<svg xmlns="http://www.w3.org/2000/svg" width="15" height="13.264" viewBox="0 0 15 13.264">
  <g id="GYM" transform="translate(-52 -79.256)">
    <path id="Union_3" data-name="Union 3" d="M6.779,13.05c-.368-.184-.736-.36-1.115-.517a1.958,1.958,0,0,1-1.2-1.577c-.039-.219-.047-.446-.074-.724.059-.29.117-.622.192-.955.024-.1.016-.153-.082-.2-.3-.157-.595-.337-.9-.485a.608.608,0,0,1-.368-.677,1.05,1.05,0,0,1,.47-.791A.49.49,0,0,1,4.25,7.1c.333.192.677.368,1.01.56A.159.159,0,0,0,5.5,7.618a2.927,2.927,0,0,1,1.315-.892,1.8,1.8,0,0,1,1.393.086c.391.188.783.376,1.182.544a1.94,1.94,0,0,1,1.182,1.558,4.056,4.056,0,0,1-1.867,4.039,2.142,2.142,0,0,1-1.068.311A1.907,1.907,0,0,1,6.779,13.05Zm1.933-5.3a1.715,1.715,0,0,0-.841.305,3.512,3.512,0,0,0-1.542,3.472A1.347,1.347,0,0,0,8.45,12.553a3.525,3.525,0,0,0,1.714-2.873,2.556,2.556,0,0,0-.211-1.2,1.247,1.247,0,0,0-1.107-.74A1.174,1.174,0,0,0,8.712,7.747ZM7.389,7.094a1.794,1.794,0,0,0-1.112.431A3.6,3.6,0,0,0,4.9,10.784a1.5,1.5,0,0,0,1.119,1.374A3.659,3.659,0,0,1,6.2,9.336a3.653,3.653,0,0,1,2.043-1.98,1.784,1.784,0,0,0-.826-.263ZM3.8,7.649c-.114.164-.149.4-.067.474.008.012.023.016.035.023.329.18.658.36,1,.544.113-.2.219-.391.329-.591-.337-.184-.669-.368-1-.548a.258.258,0,0,0-.119-.039C3.918,7.512,3.869,7.555,3.8,7.649ZM2.52,10.706c-.481-.215-.959-.434-1.432-.665A1.948,1.948,0,0,1,.059,8.553C.039,8.448.02,8.342,0,8.24V7.685c.047-.247.082-.5.149-.744A3.968,3.968,0,0,1,1.91,4.534,1.92,1.92,0,0,1,3.785,4.4c.438.192.873.387,1.3.6A1.97,1.97,0,0,1,6.2,6.624.231.231,0,0,1,6,6.894a.225.225,0,0,1-.254-.219A1.589,1.589,0,0,0,5.3,5.712a1.234,1.234,0,0,0-1.35-.3,2.65,2.65,0,0,0-1.264.959,3.786,3.786,0,0,0-.693,1.44c-.008.039-.016.074-.027.113a.243.243,0,0,1-.3.192.237.237,0,0,1-.161-.3,4.476,4.476,0,0,1,.681-1.573A3.467,3.467,0,0,1,3.749,5.011a1,1,0,0,0,.094-.043,1.521,1.521,0,0,0-1.687-.035A3.579,3.579,0,0,0,.646,6.9,3.267,3.267,0,0,0,.532,8.593,1.514,1.514,0,0,0,1.6,9.759l-.176-.881a.888.888,0,0,1-.008-.2.227.227,0,0,1,.235-.231.234.234,0,0,1,.231.231A4.534,4.534,0,0,0,2,9.407a1.289,1.289,0,0,0,1.847.845.377.377,0,0,1,.184-.035.21.21,0,0,1,.188.2.229.229,0,0,1-.153.254,2.178,2.178,0,0,1-.849.189A1.7,1.7,0,0,1,2.52,10.706Zm8.544-.035c-.188,0-.294-.082-.3-.227s.106-.239.3-.239c.474,0,.947,0,1.421,0a.417.417,0,0,0,.2-.055,3.193,3.193,0,0,0-1.112-5.832A3.164,3.164,0,0,0,8.059,6.166a.8.8,0,0,1-.074.141.232.232,0,0,1-.391-.243c.11-.227.231-.454.36-.669a.214.214,0,0,0,.02-.235c-.247-.524-.493-1.049-.732-1.577A2.514,2.514,0,0,1,9.025.053,2.615,2.615,0,0,1,9.55.006c.485-.008.975,0,1.464,0s.975,0,1.464,0a2.511,2.511,0,0,1,2.3,3.542c-.243.548-.5,1.092-.755,1.632a.225.225,0,0,0,.02.25,3.656,3.656,0,0,1-1.194,5.17.571.571,0,0,1-.262.07c-.252,0-.506,0-.76,0Zm1.515-9.608a1.443,1.443,0,0,1,1.339,1.671,4.133,4.133,0,0,1-.3.8c-.137.329-.294.646-.442.967.157.133.3.262.462.4.266-.583.56-1.143.771-1.73a2.023,2.023,0,0,0-1.886-2.7C11.5.46,10.485.46,9.464.475a2.04,2.04,0,0,0-1.843,2.8c.219.528.477,1.045.72,1.566a.18.18,0,0,0,.027.027l.446-.387Q8.5,3.826,8.2,3.168a1.46,1.46,0,0,1,1.35-2.1c.615,0,1.229,0,1.843,0a.88.88,0,0,1,.1,0,.212.212,0,0,1,.215.2.214.214,0,0,1-.172.25.723.723,0,0,1-.16.012c-.595,0-1.19.023-1.785,0A1.01,1.01,0,0,0,8.65,3.015c.184.36.341.732.513,1.1l.063.114A3.684,3.684,0,0,1,11,3.782a3.761,3.761,0,0,1,1.777.466c.215-.477.446-.928.63-1.4a.978.978,0,0,0-.9-1.323c-.045,0-.091,0-.137,0-.062,0-.123,0-.184,0a.233.233,0,0,1-.235-.247.23.23,0,0,1,.247-.215l.19,0Zm-1.718,8a.3.3,0,0,1-.051-.235c.02-.106.113-.149.223-.153a1.205,1.205,0,0,0,.947-.5A1.233,1.233,0,1,0,9.9,6.859c-.02.035-.035.07-.055.106a.233.233,0,0,1-.419-.2,1.651,1.651,0,0,1,1.159-.967,1.7,1.7,0,1,1,.54,3.346H11.1A.38.38,0,0,1,10.861,9.066Z" transform="translate(52 79.256)" fill="#00425f"/>
  </g>
</svg>
