<svg xmlns="http://www.w3.org/2000/svg" width="15" height="9.516" viewBox="0 0 15 9.516">
  <g id="Pool" transform="translate(-248.398 -335.444)">
    <path id="Union_4" data-name="Union 4" d="M2.64,9.006A5.547,5.547,0,0,0,.317,8.5.336.336,0,0,1,0,8.333V8.157a.375.375,0,0,1,.348-.164,5.7,5.7,0,0,1,2.358.5,5.668,5.668,0,0,0,4.2.215c.438-.141.853-.364,1.3-.485a6.26,6.26,0,0,1,4.365.352,4.9,4.9,0,0,0,2.034.422h.1c.18.012.286.106.286.254a.258.258,0,0,1-.286.25,5.719,5.719,0,0,1-2.445-.5A5.666,5.666,0,0,0,8.2,8.752c-.391.117-.755.313-1.146.438a6.549,6.549,0,0,1-2,.326A6,6,0,0,1,2.64,9.006ZM2.573,7.723A5.341,5.341,0,0,0,.333,7.25a.329.329,0,0,1-.325-.176V6.925a.318.318,0,0,1,.321-.18A5.7,5.7,0,0,1,2.7,7.234a5.723,5.723,0,0,0,4.4.16,12.2,12.2,0,0,1,1.447-.5,6.009,6.009,0,0,1,3.833.352,5.42,5.42,0,0,0,2.312.5c.187,0,.3.1.3.254s-.118.243-.305.243a5.768,5.768,0,0,1-2.441-.508A5.649,5.649,0,0,0,7.6,7.727a6.388,6.388,0,0,1-2.516.536A6.259,6.259,0,0,1,2.573,7.723ZM2.546,6.464A5.339,5.339,0,0,0,.317,6a.364.364,0,0,1-.309-.153V5.67a.353.353,0,0,1,.34-.176,5.689,5.689,0,0,1,2.331.485,5.413,5.413,0,0,0,1.533.458A.249.249,0,0,0,4.4,6.374C5.19,5.6,5.973,4.809,6.755,4.027a.609.609,0,0,0-.293-1.072q-1.384-.364-2.773-.716A1.128,1.128,0,0,1,3.035.393,1.051,1.051,0,0,1,4.119.033C5.1.276,6.082.534,7.06.8a3.309,3.309,0,0,1,1.494.911c.067.07.125.145.215.25A2.292,2.292,0,0,1,9.806.35a2.244,2.244,0,0,1,3.43,1.639,2.267,2.267,0,0,1-1.69,2.449.924.924,0,0,0,.035.086c.282.473.559.947.845,1.42a.34.34,0,0,0,.149.129,4.972,4.972,0,0,0,2,.422c.047,0,.1,0,.145,0A.263.263,0,0,1,15,6.753a.253.253,0,0,1-.278.239,4.558,4.558,0,0,1-1.49-.172c-.446-.137-.88-.321-1.318-.477a5.7,5.7,0,0,0-4.291.125,6.352,6.352,0,0,1-2.537.548A6.321,6.321,0,0,1,2.546,6.464ZM3.243,1a.629.629,0,0,0,.516.743l2.39.618c.153.039.309.078.466.121a1.1,1.1,0,0,1,.508,1.874c-.661.673-1.33,1.334-1.995,2-.035.035-.071.074-.133.141h.156a5.347,5.347,0,0,0,2.3-.5,6.138,6.138,0,0,1,3.665-.4c.192.031.383.082.6.137-.246-.415-.47-.8-.7-1.185-.02-.031-.09-.047-.137-.051A2.226,2.226,0,0,1,8.9,3.022a1.619,1.619,0,0,0-.473-.727c-.09-.082-.172-.172-.258-.258a2.792,2.792,0,0,0-1.033-.677c-.305-.106-.618-.184-.927-.266Q5.133.812,4.06.534A.816.816,0,0,0,3.85.506.6.6,0,0,0,3.243,1ZM10.224,3.82a1.734,1.734,0,0,0,2.261-.673Q10.942,2.373,9.391,1.6A1.735,1.735,0,0,0,10.224,3.82ZM9.649,1.168l3.028,1.514A1.7,1.7,0,0,0,11.812.7a1.721,1.721,0,0,0-.8-.2A1.684,1.684,0,0,0,9.649,1.168ZM8.1,4.942a1.654,1.654,0,0,1-.3-.293.232.232,0,0,1,0-.3.2.2,0,0,1,.282-.074,3.01,3.01,0,0,1,.388.383c.023.016.023.051.039.121-.039.051-.082.149-.153.18a.256.256,0,0,1-.1.019A.291.291,0,0,1,8.1,4.942ZM.747,4.751A.252.252,0,0,1,.508,4.5a.249.249,0,0,1,.25-.246.237.237,0,0,1,.247.25.252.252,0,0,1-.251.243Zm.516-1.244A.247.247,0,0,1,1.5,3.249a.255.255,0,0,1,.254.25.249.249,0,0,1-.25.246A.238.238,0,0,1,1.263,3.507ZM1.122,2.247a.868.868,0,1,1,.008,0Zm-.36-.884a.364.364,0,0,0,.367.383.372.372,0,1,0-.367-.383Z" transform="translate(248.398 335.444)" fill="#00425f"/>
  </g>
</svg>
